<svg width="1820" height="840" viewBox="0 0 1820 840" fill="none" xmlns="http://www.w3.org/2000/svg">
<path d="M0 50C0 22.3858 22.3858 0 50 0H633.179C644.995 0 656.428 4.18426 665.453 11.8108L699.547 40.6237C708.572 48.2502 720.005 52.4345 731.821 52.4345H881.046H1057.16C1068.97 52.4345 1080.41 48.2502 1089.43 40.6237L1123.52 11.8108C1132.55 4.18425 1143.98 0 1155.8 0H1770C1797.61 0 1820 22.3858 1820 50V243.051C1820 256.913 1814.25 270.152 1804.11 279.608L1777.18 304.74C1767.04 314.196 1761.29 327.435 1761.29 341.296V489.573C1761.29 503.434 1767.04 516.674 1777.18 526.13L1804.11 551.261C1814.25 560.718 1820 573.957 1820 587.818V790C1820 817.614 1797.61 840 1770 840L1153.91 840C1143.25 840 1132.87 836.592 1124.28 830.273L1088.67 804.075C1080.09 797.756 1069.7 794.348 1059.04 794.348H729.935C719.273 794.348 708.891 797.756 700.303 804.075L664.697 830.273C656.109 836.592 645.727 840 635.065 840L50.0001 840C22.3858 840 0 817.614 0 790V585.164C0 572.878 4.5234 561.022 12.7071 551.858L36.2177 525.533C44.4013 516.369 48.9247 504.514 48.9247 492.228V415.138V338.642C48.9247 326.356 44.4013 314.5 36.2177 305.337L12.7071 279.011C4.5234 269.848 0 257.992 0 245.706V50Z" fill="#D9D9D9" fill-opacity="0.1"/>
<path d="M1155.8 0.5H1770C1797.34 0.5 1819.5 22.6619 1819.5 50V243.051C1819.5 256.774 1813.8 269.881 1803.77 279.243L1776.84 304.374C1766.6 313.925 1760.79 327.297 1760.79 341.296V489.573C1760.79 503.573 1766.6 516.945 1776.84 526.496L1803.77 551.627C1813.8 560.989 1819.5 574.096 1819.5 587.818V790C1819.5 817.338 1797.34 839.5 1770 839.5L1153.91 839.5C1143.36 839.5 1133.08 836.126 1124.58 829.87L1088.97 803.672C1080.3 797.29 1069.81 793.848 1059.04 793.848H729.935C719.167 793.848 708.68 797.29 700.007 803.672L664.401 829.87C655.899 836.126 645.62 839.5 635.065 839.5L50.0001 839.5C22.662 839.5 0.5 817.338 0.5 790V585.164C0.5 573.001 4.97816 561.263 13.08 552.192L36.5906 525.866C44.8561 516.611 49.4247 504.636 49.4247 492.228V415.138V338.642C49.4247 326.233 44.8561 314.259 36.5906 305.004L13.08 278.678C4.97817 269.606 0.5 257.869 0.5 245.706V50C0.5 22.6619 22.6619 0.5 50 0.5H633.179C644.877 0.5 656.196 4.64241 665.13 12.1927L699.224 41.0056C708.339 48.7084 719.887 52.9345 731.821 52.9345H881.046H1057.16C1069.09 52.9345 1080.64 48.7084 1089.75 41.0056L1123.85 12.1927C1132.78 4.64241 1144.1 0.5 1155.8 0.5Z" stroke="#D9D9D9" stroke-opacity="0.5"/>
</svg>
